<svg xmlns="http://www.w3.org/2000/svg" xmlns:xlink="http://www.w3.org/1999/xlink" version="1.1" x="0px" y="0px" viewBox="0 0 48 60" enable-background="new 0 0 48 48" xml:space="preserve"><g><path fill="#000000" d="M3.4,34.3c-3.4,3.4-3.9,8.5-1,11.4c2.9,2.9,7.9,2.4,11.4-1l1.7-1.7c0.4-0.4,0.4-1.1,0-1.5l-8.8-8.8   c-0.4-0.4-1.1-0.4-1.5,0L3.4,34.3z"/><path fill="#000000" d="M47.2,24.3l-0.6-0.6c-0.2-0.2-0.5-0.3-0.8-0.3l-3.8,0c-0.6,0-1.1-0.5-1.1-1.1l0-1.8c0-0.6-0.5-1.1-1.1-1.1   l-1.7,0c-0.6,0-1.1-0.5-1.1-1.1v-1.8c0-0.6-0.5-1.1-1.1-1.1l-1.7,0c-0.6,0-1.1-0.5-1.1-1.1l0-1.8c0-0.6-0.5-1.1-1.1-1.1H30   c-0.6,0-1.1-0.5-1.1-1.1V8.2c0-0.6-0.5-1.1-1.1-1.1l-1.7,0c-0.6,0-1.1-0.5-1.1-1.1V2.5c0-0.3-0.1-0.6-0.3-0.8l-0.9-0.9   c-0.6-0.6-1.5-0.4-1.8,0.3L8.7,29l0,0l-1,1c-0.1,0.1-0.1,0.3,0,0.4l9.9,9.9c0.1,0.1,0.3,0.1,0.4,0l1-1l0,0l27.9-13.2   C47.6,25.8,47.7,24.8,47.2,24.3z M17.2,37.2c-0.1,0.1-0.3,0-0.3-0.1v0c-0.1-0.1-0.1-0.3,0.1-0.4l3.1-1.9c0.2-0.1,0.4-0.1,0.5,0.1   l0,0c0.1,0.2,0.1,0.4-0.1,0.5L17.2,37.2z M22.1,34.2C22.1,34.2,22.1,34.2,22.1,34.2C22,34,22,33.7,22.2,33.6l3.3-1.9   c0.2-0.1,0.4-0.1,0.5,0.1c0,0,0.1,0.1,0.1,0.1c0.1,0.2,0.1,0.5-0.1,0.6l-3.4,1.8C22.5,34.4,22.2,34.4,22.1,34.2z M36.9,25.5   c0.1,0.2,0.2,0.4,0.3,0.6c0.1,0.2,0,0.4-0.2,0.5l-3.2,1.7c-0.2,0.1-0.4,0-0.5-0.2c-0.1-0.2-0.2-0.3-0.3-0.5   c-0.1-0.2-0.1-0.4,0.1-0.6l3.2-1.9C36.5,25.2,36.8,25.3,36.9,25.5z M31.6,28.6c0.1,0.1,0.2,0.3,0.2,0.4c0.1,0.2,0,0.4-0.2,0.6   l-3.3,1.8c-0.2,0.1-0.4,0-0.5-0.1c0-0.1-0.1-0.1-0.1-0.2c-0.1-0.2-0.1-0.5,0.1-0.6l3.3-1.9C31.2,28.3,31.4,28.4,31.6,28.6z    M34.4,21.4c0.1,0.2,0.3,0.4,0.4,0.6c0.1,0.2,0.1,0.4-0.1,0.6l-3.2,2.2c-0.2,0.1-0.4,0.1-0.5-0.1c-0.1-0.1-0.2-0.3-0.3-0.4   c-0.1-0.2-0.1-0.4,0.1-0.6l3.1-2.3C34.1,21.2,34.3,21.3,34.4,21.4z M29.3,25.3c0.1,0.1,0.2,0.2,0.3,0.4c0.1,0.2,0.1,0.4-0.1,0.6   l-3.2,2.2c-0.2,0.1-0.4,0.1-0.5-0.1c-0.1-0.1-0.1-0.2-0.2-0.2c-0.1-0.2-0.1-0.4,0.1-0.6l3.1-2.3C28.9,25.1,29.1,25.1,29.3,25.3z    M24.1,29.2c0,0.1,0.1,0.1,0.1,0.2c0.1,0.2,0.1,0.5-0.1,0.6L21,32.2c-0.2,0.1-0.4,0.1-0.5-0.1c0,0,0,0,0,0   c-0.2-0.2-0.1-0.4,0.1-0.6l3.1-2.3C23.7,29,24,29,24.1,29.2z M18.9,33.1c0.1,0.2,0.1,0.4-0.1,0.5l-3.1,2.2c-0.1,0.1-0.3,0.1-0.4,0   l0,0c-0.1-0.1-0.1-0.3,0-0.4l3-2.3C18.6,32.9,18.8,32.9,18.9,33.1C18.9,33.1,18.9,33.1,18.9,33.1z M22.8,25.2   c-0.1-0.1-0.1-0.1-0.2-0.2c-0.2-0.2-0.2-0.4,0-0.6l2.7-2.8c0.2-0.2,0.4-0.2,0.6,0c0.1,0.1,0.2,0.2,0.3,0.3c0,0,0.1,0.1,0.1,0.1   c0.1,0.1,0.1,0.3,0,0.4l-3,2.9c-0.1,0.1-0.3,0.1-0.4,0C22.9,25.2,22.9,25.2,22.8,25.2z M21.6,27l-2.9,2.8c-0.1,0.1-0.3,0.1-0.4,0   l0,0c0,0-0.1-0.1-0.1-0.1c-0.2-0.2-0.2-0.4,0-0.6l2.7-2.8c0.2-0.2,0.4-0.2,0.6,0c0.1,0.1,0.1,0.1,0.2,0.2l0,0   C21.7,26.6,21.7,26.8,21.6,27z M16.5,30.8c0.1-0.1,0.3-0.1,0.4,0c0.1,0.1,0.1,0.1,0.2,0.2c0,0,0,0,0,0c0.1,0.1,0.1,0.3,0,0.4   l-2.8,2.7c-0.1,0.1-0.3,0.1-0.4,0l0,0c-0.1-0.1-0.1-0.3,0-0.4L16.5,30.8z M31,17.9l-2.9,2.8c-0.2,0.2-0.4,0.1-0.6,0   c0,0-0.1-0.1-0.1-0.1c-0.1-0.1-0.2-0.2-0.3-0.3c-0.2-0.2-0.2-0.4,0-0.6l2.8-2.9c0.2-0.2,0.4-0.2,0.6,0l0.5,0.5   C31.1,17.5,31.1,17.8,31,17.9z M14.8,28.9c0.1,0.1,0.2,0.3,0.1,0.5l-2.3,3c-0.1,0.1-0.3,0.2-0.4,0l0,0c-0.1-0.1-0.1-0.3,0-0.4   l2.2-3.1C14.3,28.8,14.6,28.8,14.8,28.9C14.7,28.9,14.8,28.9,14.8,28.9z M15.8,27.4C15.8,27.4,15.7,27.4,15.8,27.4   c-0.2-0.2-0.2-0.4-0.1-0.6l2.2-3.2c0.1-0.2,0.4-0.2,0.6-0.1c0.1,0,0.1,0.1,0.2,0.1c0.2,0.1,0.2,0.4,0.1,0.6l-2.3,3.1   C16.2,27.6,15.9,27.6,15.8,27.4z M19.7,22.3c-0.1-0.1-0.2-0.1-0.2-0.2c-0.2-0.1-0.2-0.4-0.1-0.5l2.2-3.2c0.1-0.2,0.4-0.2,0.6-0.1   c0.1,0.1,0.2,0.2,0.4,0.3c0.2,0.1,0.2,0.4,0.1,0.6l-2.3,3.1C20.1,22.4,19.8,22.4,19.7,22.3z M26.6,13.8l-2.4,3.2   c-0.1,0.2-0.4,0.2-0.6,0.1c-0.1-0.1-0.3-0.2-0.4-0.3c-0.2-0.1-0.2-0.4-0.1-0.6l2.3-3.3c0.1-0.2,0.4-0.2,0.6-0.1   c0.2,0.1,0.4,0.3,0.6,0.4C26.7,13.4,26.7,13.7,26.6,13.8z M21.9,10.4c0.2,0.1,0.4,0.2,0.6,0.3c0.2,0.1,0.3,0.4,0.2,0.6l-2,3.4   c-0.1,0.2-0.4,0.3-0.5,0.1c-0.2-0.1-0.3-0.2-0.5-0.3c-0.2-0.1-0.3-0.3-0.2-0.5l1.9-3.5C21.4,10.3,21.7,10.3,21.9,10.4z M18.8,16.1   c0.1,0.1,0.3,0.1,0.4,0.2c0.2,0.1,0.3,0.4,0.1,0.6l-1.9,3.3c-0.1,0.2-0.4,0.3-0.6,0.1c-0.1,0-0.1-0.1-0.2-0.1   c-0.2-0.1-0.2-0.3-0.1-0.5l1.8-3.3C18.4,16.1,18.6,16,18.8,16.1z M16.1,22.3l-1.9,3.3c-0.1,0.2-0.4,0.3-0.6,0.1c0,0,0,0,0,0   c-0.2-0.1-0.2-0.3-0.1-0.5l1.8-3.4c0.1-0.2,0.4-0.3,0.6-0.1c0,0,0.1,0.1,0.1,0.1C16.2,21.9,16.2,22.1,16.1,22.3z M12.8,27.3   L12.8,27.3c0.1,0.1,0.2,0.3,0.1,0.5L11,31c-0.1,0.1-0.2,0.1-0.4,0l0,0c-0.1-0.1-0.1-0.2-0.1-0.3l1.7-3.2   C12.4,27.3,12.6,27.2,12.8,27.3z"/></g><text x="0" y="63" fill="#000000" font-size="5px" font-weight="bold" font-family="'Helvetica Neue', Helvetica, Arial-Unicode, Arial, Sans-serif">Created by Creative Stall</text><text x="0" y="68" fill="#000000" font-size="5px" font-weight="bold" font-family="'Helvetica Neue', Helvetica, Arial-Unicode, Arial, Sans-serif">from the Noun Project</text></svg>