<svg xmlns="http://www.w3.org/2000/svg" xmlns:xlink="http://www.w3.org/1999/xlink" version="1.1" x="0px" y="0px" viewBox="0 0 100 125" style="enable-background:new 0 0 100 100;" xml:space="preserve"><g><path d="M41.3,75.7c-0.1,0,0,0.1,0.1,0.1c4.6-2,36.8-15.8,44-18.1c0.8-0.3,1.7,0.5,1.5,1.3c-0.7,3.2-5.8,8.5-5.8,8.5   s10.1-5.3,11.2-12c0.1-0.8-0.3-1.7-1-2.1C82.1,48.2,46,72.5,41.3,75.7z"/><path d="M38.2,69.2c4.4-3,32.9-22.6,39.5-26.4c0.8-0.4,1.7,0.1,1.7,1c-0.1,3.3-4,9.5-4,9.5s8.9-7.2,8.6-13.9   c0-0.8-0.6-1.6-1.4-1.9c-10-3.4-40.4,27.3-44.6,31.6C38,69.2,38.1,69.3,38.2,69.2z"/><path d="M34.5,65.1C34.5,65.1,34.5,65.2,34.5,65.1c2.9-3.4,25.7-30.7,31.2-36.2c0.6-0.6,1.7-0.4,1.9,0.5   c0.8,3.2-1.3,10.2-1.3,10.2s6.6-9.3,4.6-15.8c-0.3-0.8-1-1.4-1.8-1.4C58.3,21.9,36.9,60.7,34.5,65.1z"/><path d="M28,61c2.7-5.4,17.7-35.7,21.7-42c0.5-0.8,1.6-0.7,2,0c1.6,2.9,1.1,10.3,1.1,10.3s4.3-10.6,0.8-16.4   c-0.4-0.7-1.3-1.1-2.1-1c-10.3,1.9-21.8,42.5-23.6,49C27.8,61,27.9,61.1,28,61z"/><path d="M15.3,89.3c10,4.4,19.2-3.8,23.1-8c1.2-1.3,1.1-3.2,0-4.5C33.8,72,23.2,60.7,21.9,60.6   c-1.1-0.1-2.9,0.6-1.4,2.6c1.3,1.8,11.7,12.7,14.1,15.2c0.3,0.3,0.3,0.8,0,1.1c-2,2.4-10.1,11.1-17.8,7.1   c-7.3-3.8-1.4-16.7,0.2-20.5c0.1-0.2-0.2-1.4-2.2,1.4C12.9,70.2,4.1,84.4,15.3,89.3z"/></g><text x="0" y="115" fill="#000000" font-size="5px" font-weight="bold" font-family="'Helvetica Neue', Helvetica, Arial-Unicode, Arial, Sans-serif">Created by Nikhil Singhal</text><text x="0" y="120" fill="#000000" font-size="5px" font-weight="bold" font-family="'Helvetica Neue', Helvetica, Arial-Unicode, Arial, Sans-serif">from the Noun Project</text></svg>